<svg width="254" height="38" viewBox="0 0 254 38" fill="none" xmlns="http://www.w3.org/2000/svg">
<g id="Group">
<path id="Vector" d="M130.131 9.84375C128.852 9.84375 127.697 10.0676 126.636 10.5152C125.575 10.9629 124.67 11.6024 123.921 12.4338C123.172 13.2652 122.579 14.2564 122.142 15.3756C121.861 16.111 121.705 16.9104 121.611 17.7738H122.922C123.016 17.0703 123.141 16.3988 123.359 15.7593C123.733 14.7361 124.233 13.8727 124.857 13.1692C125.512 12.4658 126.261 11.9222 127.166 11.5385C128.071 11.1548 129.039 10.9629 130.131 10.9629C130.974 10.9629 131.691 11.0588 132.284 11.2507C132.877 11.4425 133.377 11.6344 133.782 11.8902C134.188 12.114 134.5 12.3379 134.719 12.5297C134.937 12.7216 135.124 12.8175 135.218 12.8175C135.374 12.8175 135.468 12.7536 135.53 12.6576L135.936 12.0821C135.155 11.3786 134.313 10.835 133.377 10.4513C132.44 10.0356 131.348 9.84375 130.131 9.84375Z" fill="#5C5C5C"/>
<path id="Vector_2" d="M122.891 20.3008H121.58C121.674 21.292 121.861 22.1874 122.142 23.0507C122.548 24.2018 123.109 25.1931 123.858 25.9925C124.607 26.7919 125.481 27.4314 126.511 27.8791C127.541 28.3267 128.664 28.5506 129.913 28.5506C130.662 28.5506 131.317 28.4866 131.941 28.3587C132.565 28.2308 133.127 28.0709 133.657 27.8151C134.188 27.5913 134.656 27.3035 135.093 26.9837C135.53 26.664 135.936 26.3123 136.31 25.8966L135.811 25.353C135.748 25.289 135.686 25.257 135.592 25.257L135.467 25.289C135.436 25.321 135.374 25.353 135.343 25.385C134.999 25.7367 134.625 26.0245 134.282 26.2483C133.907 26.5041 133.533 26.696 133.096 26.8878C132.69 27.0477 132.222 27.1756 131.723 27.2715C131.223 27.3675 130.662 27.3994 130.006 27.3994C129.007 27.3994 128.071 27.2076 127.197 26.8239C126.324 26.4402 125.575 25.8966 124.919 25.1931C124.295 24.4896 123.765 23.6263 123.421 22.603C123.109 21.9316 122.953 21.1322 122.891 20.3008Z" fill="#5C5C5C"/>
<path id="Vector_3" d="M145.078 20.3008H143.768V28.3267H154.472V27.2396H145.078V20.3008Z" fill="#5C5C5C"/>
<path id="Vector_4" d="M154.472 10.0391H143.768V17.7772H145.078V11.1262H154.472V10.0391Z" fill="#5C5C5C"/>
<path id="Vector_5" d="M176.194 20.3008H175.07V25.385C175.07 25.6088 175.07 25.8646 175.102 26.1204L170.857 20.3008H169.422L175.102 28.0709C175.164 28.1669 175.227 28.2308 175.32 28.2628C175.383 28.2948 175.476 28.3267 175.601 28.3267H176.194V20.3008Z" fill="#5C5C5C"/>
<path id="Vector_6" d="M163.085 10.0391H162.43V17.7772H163.553V12.9489C163.553 12.725 163.553 12.4692 163.522 12.2134L167.579 17.7772H169.014L163.553 10.2949C163.491 10.1989 163.397 10.135 163.335 10.103C163.272 10.071 163.179 10.0391 163.085 10.0391Z" fill="#5C5C5C"/>
<path id="Vector_7" d="M163.553 20.3008H162.43V28.3267H163.553V20.3008Z" fill="#5C5C5C"/>
<path id="Vector_8" d="M176.225 10.0391H175.102V17.7772H176.225V10.0391Z" fill="#5C5C5C"/>
<path id="Vector_9" d="M190.862 20.3008H189.551V28.3267H190.862V20.3008Z" fill="#5C5C5C"/>
<path id="Vector_10" d="M197.133 10.0391H183.246V11.1582H189.55V17.7772H190.861V11.1582H197.133V10.0391Z" fill="#5C5C5C"/>
<path id="Vector_11" d="M208.711 10.0391H204.154V17.7772H205.465V11.0943H208.742C210.333 11.0943 211.551 11.414 212.362 12.0535C213.205 12.6931 213.61 13.6523 213.61 14.9634C213.61 15.6029 213.485 16.1784 213.267 16.6901C213.08 17.1057 212.799 17.4895 212.487 17.8092H213.953C214.172 17.4895 214.39 17.1697 214.515 16.818C214.765 16.2424 214.859 15.6029 214.859 14.8994C214.859 13.3326 214.359 12.1175 213.329 11.3181C212.299 10.4547 210.77 10.0391 208.711 10.0391Z" fill="#5C5C5C"/>
<path id="Vector_12" d="M210.209 20.3008H208.742L208.805 20.3328C208.867 20.3967 208.961 20.4926 209.023 20.5886L214.765 28.007C214.859 28.1349 214.953 28.2308 215.046 28.2628C215.14 28.2948 215.265 28.3267 215.389 28.3267H216.513L210.365 20.4287C210.303 20.3647 210.24 20.3328 210.209 20.3008Z" fill="#5C5C5C"/>
<path id="Vector_13" d="M205.465 20.3008H204.154V28.3267H205.465V20.3008Z" fill="#5C5C5C"/>
<path id="Vector_14" d="M233.865 20.3008H232.586L233.148 21.6757L233.553 22.667L235.644 27.975C235.675 28.0709 235.738 28.1669 235.832 28.2308C235.894 28.2948 235.988 28.3267 236.112 28.3267H237.111L233.865 20.3008Z" fill="#5C5C5C"/>
<path id="Vector_15" d="M225.689 20.3008H224.41L221.195 28.3267H222.194C222.319 28.3267 222.412 28.2948 222.506 28.2308C222.6 28.1669 222.662 28.0709 222.693 27.975L224.784 22.667L225.19 21.6757L225.689 20.3008Z" fill="#5C5C5C"/>
<path id="Vector_16" d="M229.777 10.0391H228.498L225.408 17.7772H226.688L228.779 12.4692C228.841 12.3094 228.903 12.1495 228.966 11.9576C229.028 11.7658 229.091 11.5739 229.122 11.3821C229.247 11.7977 229.372 12.1814 229.496 12.4692L231.587 17.7772H232.867L229.777 10.0391Z" fill="#5C5C5C"/>
<path id="Vector_17" d="M245.381 10.0391H244.07V17.7772H245.381V10.0391Z" fill="#5C5C5C"/>
<path id="Vector_18" d="M245.381 20.3008H244.07V28.3267H253.838V27.2076H245.381V20.3008Z" fill="#5C5C5C"/>
<path id="Vector_19" d="M24.3983 20.3008H21.4336V28.3267H24.3983V20.3008Z" fill="#5C5C5C"/>
<path id="Vector_20" d="M27.239 21.4519L31.4833 27.7192C31.7329 28.1349 32.1074 28.3267 32.6068 28.3267H35.2282L30.3598 21.2281C30.2038 20.9723 29.9229 20.5886 29.642 20.3008H26.3652L27.239 21.4519Z" fill="#5C5C5C"/>
<path id="Vector_21" d="M24.3983 12.0857H26.8013C28.1432 12.0857 29.1107 12.3415 29.766 12.8851C30.4214 13.4287 30.7647 14.1961 30.7647 15.2193C30.7647 15.7309 30.6711 16.1786 30.515 16.5943C30.359 17.01 30.1093 17.3617 29.766 17.6815L29.6724 17.7774H32.918C33.1053 17.4576 33.2613 17.1379 33.3549 16.7862C33.5422 16.2106 33.6358 15.635 33.6358 14.9635C33.6358 14.1641 33.511 13.4607 33.2301 12.7892C32.9804 12.1496 32.5435 11.5741 32.013 11.1264C31.4512 10.6788 30.7647 10.295 29.8909 10.0712C29.0171 9.8154 27.9872 9.6875 26.8013 9.6875H21.4336V17.7454H24.3983V12.0857Z" fill="#5C5C5C"/>
<path id="Vector_22" d="M51.644 21.3592L52.4242 23.5335L53.9222 27.6584C54.0158 27.8503 54.1406 28.0102 54.2967 28.17C54.4527 28.2979 54.6712 28.3619 54.9208 28.3619H57.199L54.0782 20.3359H51.2695L51.644 21.3592Z" fill="#5C5C5C"/>
<path id="Vector_23" d="M39.8477 28.3275H42.1258C42.3755 28.3275 42.5939 28.2635 42.75 28.1036C42.906 27.9438 43.0308 27.7839 43.0933 27.624L44.6224 23.4991L45.4338 21.3247L45.8083 20.2695H42.9372L39.8477 28.3275Z" fill="#5C5C5C"/>
<path id="Vector_24" d="M50.3331 17.7728H53.1418L50.021 9.71484H47.0251L43.9043 17.7728H46.713L47.8989 14.5752C47.9925 14.3194 48.0861 14.0316 48.211 13.6799C48.3046 13.3281 48.4294 12.9764 48.523 12.5607C48.7415 13.3601 48.9287 14.0316 49.1472 14.5752" fill="#5C5C5C"/>
<path id="Vector_25" d="M66.5609 16.0781C66.5609 15.8862 66.5609 15.6304 66.5297 15.4066C66.5297 15.1507 66.4985 14.9269 66.4673 14.6711L68.8079 17.7728H72.2095L66.4985 10.2265C66.4361 10.1305 66.3425 10.0346 66.2801 9.97065C66.2177 9.9067 66.1552 9.84275 66.0616 9.81077C65.9992 9.7788 65.9056 9.74682 65.812 9.74682C65.7183 9.74682 65.6247 9.71484 65.4999 9.71484H63.9707V17.7728H66.5609V16.0781Z" fill="#5C5C5C"/>
<path id="Vector_26" d="M78.9809 9.71484H76.3906V17.7728H78.9809V9.71484Z" fill="#5C5C5C"/>
<path id="Vector_27" d="M66.5609 20.3008H63.9707V28.3267H66.5609V20.3008Z" fill="#5C5C5C"/>
<path id="Vector_28" d="M76.3908 21.8676C76.3908 22.0914 76.3908 22.3472 76.422 22.603C76.422 22.8589 76.4532 23.1147 76.4844 23.4024L74.1438 20.3328H70.7422L76.4532 27.8471C76.6092 28.039 76.7341 28.1669 76.9213 28.2628C77.0773 28.3587 77.2646 28.3907 77.5143 28.3907H79.0122V20.3008H76.422V21.8676H76.3908Z" fill="#5C5C5C"/>
<path id="Vector_29" d="M90.871 12.1496H94.7719C95.7082 12.1496 96.5508 12.3095 97.2998 12.6293C98.0487 12.949 98.6729 13.3967 99.2034 13.9723C99.7339 14.5478 100.14 15.2833 100.421 16.1147C100.577 16.6263 100.701 17.1699 100.764 17.7454H103.791C103.697 16.8501 103.51 16.0187 103.198 15.2193C102.761 14.0682 102.137 13.1089 101.357 12.2775C100.577 11.4462 99.6091 10.8386 98.4856 10.359C97.3622 9.91133 96.1451 9.6875 94.7719 9.6875H87.9062V17.7454H90.871V12.1496Z" fill="#5C5C5C"/>
<path id="Vector_30" d="M100.421 21.8996C100.14 22.7629 99.7339 23.4664 99.2034 24.0739C98.6729 24.6495 98.0487 25.1291 97.2998 25.4169C96.5508 25.7367 95.7082 25.8966 94.7719 25.8966H90.871V20.3008H87.9062V28.3267H94.7719C96.1451 28.3267 97.3622 28.1029 98.4856 27.6552C99.6091 27.2076 100.545 26.5681 101.357 25.7367C102.168 24.9053 102.761 23.946 103.198 22.7949C103.51 22.0275 103.697 21.1641 103.791 20.3008H100.764C100.701 20.8763 100.577 21.4199 100.421 21.8996Z" fill="#5C5C5C"/>
<path id="Vector_31" d="M9.10728 20.9083C9.73143 21.4199 10.0435 22.1234 10.0435 23.0507C10.0435 24.0739 9.76264 24.8094 9.1697 25.289C8.67037 25.6727 7.92139 25.8966 6.95395 25.9605H3.33387V20.3008H0.369141V28.3267H6.42342H7.04758C8.07743 28.3267 9.01366 28.1988 9.82506 27.9111C10.6365 27.6552 11.323 27.2715 11.8536 26.7919C12.4153 26.3123 12.821 25.7367 13.1019 25.0972C13.3827 24.4257 13.5388 23.7222 13.5388 22.9228C13.5388 21.8356 13.2267 20.9723 12.6337 20.3008H7.70294C8.26467 20.4287 8.764 20.6205 9.10728 20.9083Z" fill="#5C5C5C"/>
<path id="Vector_32" d="M3.33387 12.1162H6.95395C7.92139 12.1802 8.67037 12.372 9.1697 12.7877C9.76264 13.2354 10.0435 13.9708 10.0435 15.026C10.0435 15.9533 9.73143 16.6888 9.10728 17.2004C8.73279 17.4882 8.23347 17.68 7.64052 17.8079H12.6025C13.1955 17.1045 13.5076 16.2411 13.5076 15.1539C13.5076 14.3545 13.3515 13.6191 13.0707 12.9796C12.7898 12.3081 12.3529 11.7645 11.8223 11.2848C11.2606 10.8052 10.6052 10.4215 9.79385 10.1657C8.98245 9.90988 8.07743 9.75 7.01637 9.75H6.39222H0.369141V17.8079H3.33387V12.1162Z" fill="#5C5C5C"/>
<path id="Vector_33" d="M111.312 0.316406V18.9264V19.1183V37.7282H113.778V19.1183V18.9264V0.316406H111.312Z" fill="#FFE504"/>
</g>
</svg>
